<svg xmlns="http://www.w3.org/2000/svg" width="180mm" height="55mm" viewBox="0 0 180 55"><style>@font-face{font-family:G;src:url('../../../themes/supervised/static/fonts/GeneralSans-Variable.woff2')}text{font-family:G,Arial,sans-serif}.rule{stroke:#fafaf8;stroke-opacity:.1;stroke-width:.25}</style><rect width="85" height="55" rx="2" fill="#021602"/><g class="rule"><path d="M14.2 0v55M28.3 0v55M42.5 0v55M56.7 0v55M70.8 0v55"/></g><image href="../../../static/favicon.svg" x="7" y="6" width="7" height="7" style="filter:invert(1)"/><text x="16" y="11.3" fill="#fafaf8" font-size="3.1">Supervised</text><text x="7" y="31" fill="#fafaf8" font-size="7.1" font-weight="300">Rust die</text><text x="7" y="38.5" fill="#fafaf8" font-size="7.1" font-weight="300">richting geeft.</text><text x="7" y="49" fill="#ff6205" font-size="2.2" letter-spacing=".35">MICROSOFT 365 COPILOT</text><rect x="95" width="85" height="55" rx="2" fill="#fafaf8"/><g stroke="#0a1a0a" stroke-opacity=".08" stroke-width=".25"><path d="M109.2 0v55M123.3 0v55M137.5 0v55M151.7 0v55M165.8 0v55"/></g><text x="102" y="13" fill="#0a1a0a" font-size="4.2" font-weight="500">Jeroen Gijselaar</text><text x="102" y="18" fill="#c24a00" font-size="2.1" letter-spacing=".35">COPILOT-SPECIALIST</text><text x="102" y="31" fill="#0a1a0a" fill-opacity=".75" font-size="2.65">info@supervised.nl</text><text x="102" y="36" fill="#0a1a0a" fill-opacity=".75" font-size="2.65">+31 6 44 83 56 56</text><text x="102" y="41" fill="#0a1a0a" fill-opacity=".75" font-size="2.65">supervised.nl</text><text x="102" y="49" fill="#0a1a0a" fill-opacity=".4" font-size="2.2">Enschede · Oost-Nederland</text></svg>
