<svg xmlns="http://www.w3.org/2000/svg" width="180mm" height="55mm" viewBox="0 0 180 55"><style>@font-face{font-family:G;src:url('../../../themes/supervised/static/fonts/GeneralSans-Variable.woff2')}text{font-family:G,Arial,sans-serif}.dark-rule{stroke:#fafaf8;stroke-opacity:.1;stroke-width:.25}.light-rule{stroke:#0a1a0a;stroke-opacity:.08;stroke-width:.25}</style><defs><clipPath id="portrait"><rect x="151.5" y="6" width="21.5" height="43" rx="4"/></clipPath></defs><rect width="85" height="55" rx="2" fill="#021602"/><g class="dark-rule"><path d="M14.2 0v55M28.3 0v55M42.5 0v55M56.7 0v55M70.8 0v55"/></g><image href="../../../static/favicon.svg" x="7" y="6" width="7" height="7" style="filter:invert(1)"/><text x="16" y="11.3" fill="#fafaf8" font-size="3.1">Supervised</text><text x="7" y="30" fill="#fafaf8" font-size="7" font-weight="300">Rust die</text><text x="7" y="37.5" fill="#fafaf8" font-size="7" font-weight="300">richting geeft.</text><path d="M7 44h71" class="dark-rule"/><text x="7" y="49.2" fill="#ff6205" font-size="2.1" letter-spacing=".35">MICROSOFT 365 COPILOT</text><rect x="95" width="85" height="55" rx="2" fill="#fafaf8"/><g class="light-rule"><path d="M109.2 0v55M123.3 0v55M137.5 0v55M151.7 0v55M165.8 0v55"/></g><text x="102" y="12" fill="#c24a00" font-size="2" letter-spacing=".32">COPILOT-SPECIALIST</text><text x="102" y="21" fill="#0a1a0a" font-size="4.6" font-weight="500">Jeroen Gijselaar</text><text x="102" y="30" fill="#0a1a0a" fill-opacity=".75" font-size="2.45">info@supervised.nl</text><text x="102" y="35" fill="#0a1a0a" fill-opacity=".75" font-size="2.45">+31 6 44 83 56 56</text><text x="102" y="43" fill="#0a1a0a" fill-opacity=".62" font-size="2.25">Enschede · Oost-Nederland</text><text x="102" y="49" fill="#c24a00" font-size="2.4">supervised.nl →</text><image href="../../../assets/img/profile_picture.jpg" x="151.5" y="6" width="21.5" height="43" preserveAspectRatio="xMidYMin slice" clip-path="url(#portrait)" transform="rotate(2 162.25 27.5)"/></svg>
