<svg xmlns="http://www.w3.org/2000/svg" viewBox="0 0 256 255">
<style>path{fill:#021602}@media (prefers-color-scheme:dark){path{fill:#FAFAF8}}</style>
<path d="M128 0C57.4205 0 0 57.1962 0 127.5C0 197.804 57.4205 255 128 255C198.579 255 256 197.804 256 127.5C256 57.1962 198.578 0 128 0ZM67.7625 219.022C70.5094 216.569 82.3528 212.077 86.4462 209.83C104.998 199.648 117.11 182.241 121.137 161.618C122.343 155.367 123.435 149.228 123.924 142.879L124.87 130.636C125.049 128.33 125.587 126.641 127.821 126.56H128.179C130.413 126.641 130.951 128.33 131.13 130.636L132.075 142.879C132.565 149.228 133.657 155.367 134.863 161.618C138.89 182.241 151.002 199.648 169.554 209.83C173.646 212.077 185.492 216.569 188.238 219.022C170.923 230.368 150.229 236.993 128 236.993C105.771 236.993 85.0769 230.366 67.7625 219.021V219.022ZM206.183 204.372C186.154 203.499 162.255 182.41 156.429 165.368C154.554 159.83 152.859 154.569 151.93 148.918C151.604 146.937 154.359 146.093 155.206 147.912C155.206 147.944 155.223 147.96 155.239 147.977C158.19 154.374 162.526 159.814 167.433 165.011C177.85 176.053 191.478 183.425 206.786 185V164.296C206.215 164.117 205.628 163.987 205.156 163.89C188.805 160.448 173.204 147.197 169.797 129.725C169.487 128.101 171.394 126.964 172.633 128.068C174.1 129.4 175.405 130.731 176.774 132.177C183.164 138.948 191.185 142.732 200.412 144.566C202.401 144.956 204.667 145.151 206.786 144.599V120.745C206.753 120.745 206.721 120.761 206.704 120.761C197.608 123.164 188.772 121.492 181.974 115.419C170.775 105.4 175.943 92.2141 174.671 76.6091C173.041 56.5061 158.874 39.7481 139.035 35.1852C135.253 34.3083 131.569 33.8861 127.998 33.8374C124.428 33.8861 120.744 34.3083 116.962 35.1852C97.1224 39.7481 82.956 56.5061 81.3258 76.6091C80.0542 92.2141 85.2219 105.4 74.0225 115.419C67.2245 121.492 58.3889 123.164 49.2923 120.761C49.276 120.761 49.2434 120.745 49.2108 120.745V144.599C51.3301 145.151 53.5961 144.956 55.5849 144.566C64.8118 142.732 72.8324 138.948 79.2228 132.177C80.5922 130.731 81.8963 129.4 83.3635 128.068C84.6025 126.964 86.5098 128.101 86.2001 129.725C82.7929 147.197 67.1919 160.448 50.841 163.89C50.3683 163.987 49.7814 164.117 49.2108 164.296V185C64.5184 183.425 78.1469 176.053 88.5638 165.011C93.4707 159.814 97.8071 154.374 100.758 147.977C100.774 147.96 100.79 147.944 100.79 147.912C101.638 146.093 104.393 146.937 104.067 148.918C103.138 154.569 101.442 159.83 99.5677 165.368C93.7414 182.41 69.8443 203.497 49.814 204.372C30.2043 184.587 18.074 157.43 18.074 127.498C18.0757 67.1243 67.3876 18.005 128 18.005C188.612 18.005 237.924 67.1243 237.924 127.5C237.924 157.432 225.794 184.587 206.184 204.374L206.183 204.372Z"/>
</svg>
